<svg xmlns="http://www.w3.org/2000/svg" viewBox="0 0 1200 675" width="1200" height="675">
  <rect width="1200" height="675" fill="#0C0C0C"/>
  <!-- Subtle Background Grid -->
  <path d="M0 135 H1200 M0 270 H1200 M0 405 H1200 M0 540 H1200" stroke="#181818" stroke-width="1.5"/>
  <path d="M240 0 V675 M480 0 V675 M720 0 V675 M960 0 V675" stroke="#181818" stroke-width="1.5"/>
  
  <!-- Centered Favicon / Logo Circle Badge -->
  <circle cx="600" cy="300" r="110" fill="#161616" stroke="#EEE642" stroke-width="4"/>
  
  <!-- Cloud Icon Vector -->
  <path d="M540 330 H660 A45 45 0 0 0 660 240 A55 55 0 0 0 550 220 A60 60 0 0 0 510 300 A45 45 0 0 0 540 330 Z" fill="#EEE642"/>

  <!-- Centered Brand Title & URL -->
  <text x="600" y="470" font-family="-apple-system, monospace" font-size="44" font-weight="900" fill="#FFFFFF" text-anchor="middle" letter-spacing="4">KOTA CLOUD</text>
  <text x="600" y="525" font-family="-apple-system, monospace" font-size="22" font-weight="700" fill="#EEE642" text-anchor="middle" letter-spacing="2">https://kotacloud.com/</text>
</svg>
